# xmcd CD database file
#
# Track frame offsets:
#	151
#	12644
#	29265
#	44166
#	56657
#	73798
#	89905
#	102476
#	114369
#	129262
#
# Disc length: 1958 seconds
#
# Revision: 0
# Processed by: cddbd v1.5.1PL0 Copyright (c) Steve Scherf et al.
# Submitted via: CDex 1.51
#
DISCID=9307a40a
DTITLE=José Jose and 9 Grandes Idolos de La Balada Romántica - 100 años de Musica (DIMSA)
DYEAR=2004
DGENRE=Romántico
TTITLE0=Mi Vidá
TTITLE1=Enrique Guzmán  Fuen Una Historia de Amor
TTITLE2=Yaco Monti  Un Adios
TTITLE3=Angélica María  Con U Beso Pequeñisimo
TTITLE4=Alberto Vázquez  Y Nunca Comprendi
TTITLE5=Johnny Laboriel Señora Corazón
TTITLE6=Martha Isabel  De Que Callada manera
TTITLE7=Sergio Esquivel  Por Esto Te Quiero
TTITLE8=Lupita D'Alessio  Ya Lo Se Que Tu Te Vas
TTITLE9=Gualberto Castro  Hasta Que Vuelvas
EXTD=YEAR: 2004
EXTT0=
EXTT1=
EXTT2=
EXTT3=
EXTT4=
EXTT5=
EXTT6=
EXTT7=
EXTT8=
EXTT9=
PLAYORDER=
